<svg version="1" xmlns="http://www.w3.org/2000/svg" width="341.333" height="341.333" viewBox="0 0 256.000000 256.000000"><path d="M98.5 5.5c-1.6.9-4.2 2.9-5.6 4.6-2.4 2.7-3 2.9-4.9 1.9-3.8-2-12.3-.8-16.4 2.4-5.8 4.4-7.6 9-7.6 19.6v9.1l-3.4-.6c-3.8-.8-10.9 1.9-13.8 5.1-4.9 5.6-4.8 3.5-4.8 94.6v89c0 3.4-.2 3.7-3.2 4l-3.3.3v16l59.7.3c68.2.3 62 1.2 61.5-9.3-.3-6.1-1.4-7.5-5.9-7.5H148v-25l16.8-17.8c9.3-9.7 17.4-18.7 18-19.9.7-1.2 1.2-5 1.2-8.6 0-5.9-.4-7-4.8-14.3-17-27.9-20.9-32.4-28.4-32.4H147V75.7c-.1-43.2-.4-46.1-4.7-50.9-2.8-3.1-8.8-5.8-13.2-5.8-3.3 0-4-.4-4.5-2.5-.8-3.2-6.1-9.2-9.7-11.1-3.6-1.8-12.6-1.8-16.4.1zm11.9 7.9c6.8 2.9 6.6.9 6.6 53.5v47.4l-3.7-.7c-2.1-.3-6.8-.6-10.6-.6H96V66.4c.1-51.5-.1-50.2 6.5-53 3.8-1.7 3.9-1.7 7.9 0zm-22.9 8.2c1.4.9 2.9 3.2 3.5 5.3.6 2.1 1 19.9 1 44.2v40.6l-9.6.7c-5.3.4-9.9.4-10.1.2-.4-.4-.6-45.7-.3-81.4 0-4.6.4-5.8 2.9-8.3 3.4-3.4 8.6-3.9 12.6-1.3zm47.6 9.2l3.1 2.8.1 46.5c.1 43-.1 46.6-1.7 49.1-4.3 6.5-3.9 13.1 1.1 21 2 3.2 2.3 5.1 2.3 12.5v8.7l4.9-4.8 4.9-4.8-4.6-7.4c-6.8-10.8-7.2-11.6-7.2-15.2 0-4.8 2.4-9.3 6.5-12.1 6.4-4.3 7.4-3.2 25.1 25.4 4.4 7 5.8 12.3 4.4 16-.4 1.1-5.3 6.7-10.8 12.5-5.5 5.8-12.9 13.6-16.6 17.5l-6.6 7V234H50l.2-89 .3-88.9 2.2-2.3c3-3 8.6-3 11.6 0 2.2 2.2 2.2 2.8 2.5 31.2.3 28.4.2 29-1.7 29-3.8 0-7.2 2.2-6.9 4.4.3 2.4 0 2.3 14.8.6 14.8-1.7 45.6.1 53.3 3.2 2.3.9 3.1.8 4.4-.5 1.5-1.5 1.5-1.8-.2-3.7-1-1.1-3.6-2.3-5.7-2.6l-3.8-.7V32.1l2.6-2c3.7-2.9 7.7-2.7 11.5.7z"/><path d="M97.3 157.5c-11.3 3.1-19.5 9.3-26.1 19.9-7.2 11.4-11 25.7-11.5 43.1-.2 9.4-.1 10 1.8 10 1.8 0 2-.7 2.1-5.8.2-7.6 1.2-17 2.4-22.7.6-2.5 1.3-5.6 1.6-7 .2-1.4 2.3-6.2 4.5-10.7 10.6-21.5 32.3-29.2 56.4-20.2 3 1.1 5.9 1.8 6.5 1.4 2.3-1.4.7-3.5-4.3-5.3-11.3-4.2-23.9-5.2-33.4-2.7z"/></svg>